# xmcd CD database file
#
# Track frame offsets:
#	150
#	17937
#	32027
#	47306
#	59304
#	78169
#	91369
#	105775
#	118630
#	136486
#	149348
#	164290
#	175683
#	198243
#
# Disc length: 2828 seconds
#
# Revision: 0
# Processed by: cddbd v1.5.2PL0 Copyright (c) Steve Scherf et al.
# Submitted via: CDex 1.51
#
DISCID=ab0b0a0e
DTITLE=trucks - slow it goes up
DYEAR=1900
DGENRE=Country
TTITLE0=sweet home alabama
TTITLE1=slow it goes up
TTITLE2=two pina coladas
TTITLE3=homespune love
TTITLE4=lay down sally
TTITLE5=tequila sunrise
TTITLE6=honey i'm home
TTITLE7=don't rock the jukebox
TTITLE8=new kid in town
TTITLE9=hummingbird
TTITLE10=have you ever seen the rain
TTITLE11=some days you got a dance
TTITLE12=sultan of swing
TTITLE13=living in a bulleseye
EXTD=
EXTT0=
EXTT1=
EXTT2=
EXTT3=
EXTT4=
EXTT5=
EXTT6=
EXTT7=
EXTT8=
EXTT9=
EXTT10=
EXTT11=
EXTT12=
EXTT13=
PLAYORDER=
